<svg version="1.1" xmlns="http://www.w3.org/2000/svg" xmlns:xlink="http://www.w3.org/1999/xlink">
    <symbol id="linkedin" width="22" height="22" viewBox="0 0 22 22" fill="none" xmlns="http://www.w3.org/2000/svg">
        <path d="M19.25 3.96324V18.0368C19.25 18.3585 19.1222 18.6671 18.8947 18.8947C18.6671 19.1222 18.3585 19.25 18.0368 19.25H3.96324C3.64147 19.25 3.33287 19.1222 3.10535 18.8947C2.87782 18.6671 2.75 18.3585 2.75 18.0368V3.96324C2.75 3.64147 2.87782 3.33287 3.10535 3.10535C3.33287 2.87782 3.64147 2.75 3.96324 2.75H18.0368C18.3585 2.75 18.6671 2.87782 18.8947 3.10535C19.1222 3.33287 19.25 3.64147 19.25 3.96324V3.96324ZM7.60294 9.05882H5.17647V16.8235H7.60294V9.05882ZM7.82132 6.38971C7.8226 6.20616 7.78772 6.02417 7.71866 5.85411C7.6496 5.68405 7.54772 5.52925 7.41884 5.39857C7.28995 5.26788 7.13659 5.16386 6.9675 5.09245C6.79842 5.02103 6.61693 4.98362 6.43338 4.98235H6.38971C6.01645 4.98235 5.65849 5.13063 5.39456 5.39456C5.13063 5.65849 4.98235 6.01645 4.98235 6.38971C4.98235 6.76296 5.13063 7.12092 5.39456 7.38485C5.65849 7.64878 6.01645 7.79706 6.38971 7.79706V7.79706C6.57326 7.80157 6.75591 7.76988 6.92721 7.70378C7.09851 7.63768 7.25511 7.53848 7.38806 7.41184C7.52101 7.2852 7.6277 7.13361 7.70204 6.96572C7.77638 6.79783 7.81692 6.61694 7.82132 6.43338V6.38971ZM16.8235 12.1065C16.8235 9.77221 15.3385 8.86471 13.8632 8.86471C13.3802 8.84052 12.8993 8.9434 12.4684 9.16309C12.0375 9.38279 11.6718 9.71161 11.4076 10.1168H11.3397V9.05882H9.05882V16.8235H11.4853V12.6937C11.4502 12.2707 11.5835 11.851 11.8561 11.5257C12.1287 11.2004 12.5186 10.9958 12.9412 10.9563H13.0334C13.805 10.9563 14.3776 11.4416 14.3776 12.6646V16.8235H16.8041L16.8235 12.1065Z" fill="#173817"/>
    </symbol>

    <symbol id="messenger" width="22" height="22" viewBox="0 0 22 22" fill="none" xmlns="http://www.w3.org/2000/svg">
        <path fill-rule="evenodd" clip-rule="evenodd" d="M2.75 10.7525C2.75 6.15428 6.35253 2.75 11 2.75C15.6475 2.75 19.25 6.15428 19.25 10.7525C19.25 15.3507 15.6475 18.755 11 18.755C10.1652 18.755 9.36436 18.6448 8.61187 18.4379C8.4656 18.3976 8.31005 18.409 8.17124 18.4702L6.53373 19.1931C6.10539 19.3822 5.62187 19.0776 5.60752 18.6095L5.56259 17.142C5.55706 16.9611 5.47572 16.7922 5.34096 16.6715C3.73571 15.236 2.75 13.1577 2.75 10.7525ZM8.46935 9.24796L6.04591 13.0928C5.81334 13.4618 6.26689 13.8776 6.61433 13.6139L9.21751 11.6383C9.39359 11.5046 9.63694 11.5039 9.81377 11.6366L11.7413 13.0822C12.3197 13.516 13.1452 13.3637 13.5307 12.7521L15.9541 8.90721C16.1866 8.53822 15.7331 8.12242 15.3857 8.38609L12.7825 10.3617C12.6064 10.4954 12.3631 10.4961 12.1862 10.3634L10.2587 8.9178C9.68033 8.48401 8.85484 8.63631 8.46935 9.24796Z" fill="#173817"/>
    </symbol>

    <symbol id="twitter" width="22" height="22" viewBox="0 0 22 22" fill="none" xmlns="http://www.w3.org/2000/svg">
        <path d="M18.2897 7.26008C18.3009 7.42171 18.3009 7.58333 18.3009 7.74644C18.3009 12.7165 14.5173 18.4485 7.59884 18.4485V18.4455C5.5551 18.4485 3.55381 17.8631 1.83331 16.7593C2.13049 16.7951 2.42916 16.8129 2.72857 16.8137C4.42225 16.8152 6.06752 16.2469 7.39997 15.2004C5.79045 15.1699 4.37905 14.1205 3.88599 12.5884C4.44981 12.6971 5.03075 12.6748 5.58414 12.5236C3.82939 12.1691 2.56694 10.6273 2.56694 8.83683C2.56694 8.82045 2.56694 8.80481 2.56694 8.78917C3.0898 9.08038 3.67521 9.24201 4.27403 9.25988C2.62131 8.15534 2.11187 5.95668 3.10991 4.23767C5.01958 6.58753 7.83717 8.01606 10.8618 8.16726C10.5587 6.86087 10.9728 5.49192 11.95 4.57358C13.4649 3.14952 15.8475 3.22251 17.2716 4.73669C18.114 4.5706 18.9213 4.26151 19.6602 3.82356C19.3794 4.69424 18.7917 5.43383 18.0067 5.9038C18.7523 5.81591 19.4807 5.6163 20.1666 5.31168C19.6617 6.0684 19.0256 6.72755 18.2897 7.26008Z" fill="#173817"/>
    </symbol>
</svg>